<?xml version="1.0" encoding="utf-8"?>
<!-- Generator: Adobe Illustrator 16.0.0, SVG Export Plug-In . SVG Version: 6.00 Build 0)  -->
<!DOCTYPE svg PUBLIC "-//W3C//DTD SVG 1.1//EN" "http://www.w3.org/Graphics/SVG/1.1/DTD/svg11.dtd">
<svg version="1.1" id="Layer_1" focusable="false" xmlns="http://www.w3.org/2000/svg" xmlns:xlink="http://www.w3.org/1999/xlink"
	 x="0px" y="0px" width="500px" height="500px" viewBox="0 0 500 500" enable-background="new 0 0 500 500" xml:space="preserve">
<path fill="#F3F3F3" d="M82.979,289.167c0,0-11.456-53.913,0-82.386c-22.519-12.149-48.196-26.196-48.196-26.196
	s18.962-52.773,45.037-75.932c13.038,5.314,48.594,26.197,48.594,26.197s39.506-33.79,73.481-40.624c0.79-12.909,0-54.292,0-54.292
	s58.863-11.009,94.815,0c0,20.121,0,53.912,0,53.912s48.307,14.032,72.689,41.003c14.222-7.594,48.988-28.096,48.988-28.096
	s39.504,47.838,47.011,77.072c-20.938,10.25-50.567,27.335-50.567,27.335s12.249,53.527,0,82.004
	c16.593,9.494,48.197,27.338,48.197,27.338s-16.197,52.773-45.037,75.932c-18.565-11.011-47.406-26.196-47.406-26.196
	s-34.766,29.613-75.06,41.003c0,18.604-0.396,53.533-0.396,53.533s-55.704,12.91-91.654,0c-0.396-20.503,0.395-52.772,0.395-52.772
	s-54.913-20.502-75.853-41.384c-13.036,7.592-47.406,26.195-47.406,26.195s-44.641-52.772-45.827-74.035L82.979,289.167z
	 M329.115,31.042c0-3.029,1.778-15.385-19.16-24.306c-20.94-8.922-80-8.923-121.087,0c-9.679,2.657-19.556,11.959-19.359,24.306
	c0.197,12.347,0,21.632,0.199,38.147c-21.333,5.315-43.654,23.35-43.654,23.35S93.857,75.075,92.475,74.125
	c-1.382-0.949-15.013-9.871-31.606,3.607c-16.592,13.478-48.79,61.314-59.653,100.609c-4.149,17.274,2.963,24.488,9.087,28.285
	c6.123,3.797,15.407,7.783,35.357,19.363c-1.382,15.188,0,49.165,0,49.165s-25.679,13.86-33.778,18.984
	c-8.098,5.126-14.222,13.099-11.655,28.096c8.099,38.156,50.173,89.789,60.642,99.47c10.469,9.684,24.297,7.404,30.026,4.559
	c5.729-2.849,21.531-11.391,34.764-18.414c11.655,10.249,44.446,24.297,44.446,24.297s0,28.475,0,37.018
	c0,8.541,3.752,19.362,18.765,24.108c46.223,13.478,105.877,3.227,120.493,0c14.617-3.228,19.358-17.654,19.506-23.158
	c0.148-5.508,0.644-21.265,0.843-38.537c12.838-4.746,43.257-23.919,43.257-23.919s25.68,14.236,34.369,18.795
	c8.693,4.555,20.941,2.658,31.014-5.314c22.52-15.947,55.309-82.389,60.05-98.144c4.74-15.759-5.334-26.198-10.667-29.614
	s-26.271-14.427-34.369-18.982c3.358-8.542,0.196-48.407,0.196-48.407s30.815-17.274,33.777-19.932
	c2.965-2.657,15.015-2.847,11.26-27.335c-4.542-32.082-46.468-87.655-60.689-100.467c-14.225-12.814-30.372-3.844-30.372-3.844
	s-24.444,12.813-34.37,18.793c-8.892-9.968-44.298-25.487-44.298-25.487S329.115,34.07,329.115,31.042z"/>
<path fill="#F3F3F3" d="M249.115,342.874c-53.56,0-97.134-41.875-97.134-93.347c0-51.472,43.575-93.347,97.134-93.347
	c53.558,0,97.133,41.875,97.133,93.347C346.248,300.999,302.673,342.874,249.115,342.874z M249.115,184.176
	c-37.498,0-68.003,29.316-68.003,65.353c0,36.034,30.506,65.352,68.003,65.352c37.494,0,68.001-29.317,68.001-65.352
	C317.116,213.492,286.611,184.176,249.115,184.176z"/>
</svg>
