<svg xmlns="http://www.w3.org/2000/svg" viewBox="0 0 384 512"><path fill="#00AEEF" d="M42.802,2.182c0,0,231.088-1.492,246.744,0c0,0,12.859,0.371,26.277,14.907
	c13.418,14.537,84.423,75.478,84.981,96.164s3.354,335.452-0.559,350.549c-3.915,15.095-25.159,35.781-48.642,35.781
	c-23.481,0-296.128,1.118-308.802,0c-12.673-1.118-42.305-24.04-42.305-44.168s-1.118-393.598,0-409.253
	C1.615,30.508,16.898,5.725,42.802,2.182z"/>
<path fill="#091E25" d="M55.126,21.532c0,0,213.104-1.376,227.541,0c0,0,11.858,0.34,24.232,13.745
	c12.374,13.405,77.849,69.604,78.369,88.682c0.515,19.074,3.092,309.346-0.521,323.266c-3.607,13.921-23.198,32.995-44.854,32.995
	c-21.652,0-273.082,1.031-284.769,0c-11.688-1.03-39.014-22.166-39.014-40.729c0-18.56-1.031-362.967,0-377.403
	C17.143,47.652,31.238,24.797,55.126,21.532z"/>
<g>
	<text transform="matrix(1 0 0 1 37.959 295.5742)" fill="#3DC7F4" font-family="'Myriad-Bold'" font-size="312.9">Ps</text>
</g>
<text transform="matrix(1 0 0 1 111.7598 421.5059)" fill="#FFFFFF" font-family="'Myriad-Bold'" font-size="95.3813">PSD</text></svg>