<svg aria-hidden="true" focusable="false" data-prefix="fas" data-icon="cogs" class="svg-inline--fa fa-cogs fa-w-20" role="img" xmlns="http://www.w3.org/2000/svg" viewBox="0 0 640 512"><path fill="#7cb0ac" d="M57.604,111.194h165.262v55.367H57.604l-1.398,193.225h166.66v55.926H30.2c0,0-27.684,2.237-28.522-28.242
		c-0.839-30.48,0-208.605,0-208.605L0,40.448c0,0,1.678-12.863,14.168-13.236c12.49-0.373,28.522,0,28.522,0
		s13.608,1.677,13.608,13.236C56.299,52.006,57.604,111.194,57.604,111.194z"/>
	<path fill="#00cab9" d="M471.877,55.547c9.839,0.642,28.104,2.421,27.916,27.774c-0.187,25.353,0.374,110.174,0.374,110.174
		s0.558,27.218-27.218,27.777c-27.776,0.56-194.811,0.125-194.811,0.125s-27.962-0.498-28.148-27.529
		c-0.187-27.031,0-138.882,0-138.882s3.913-27.358,28.148-27.94c24.235-0.582,67.857,0,67.857,0l29.269,27.38
		C375.265,54.426,447.508,53.958,471.877,55.547z"/>
	<path fill="#00cab9" d="M471.877,306.097c9.839,0.643,28.104,2.421,27.916,27.774c-0.187,25.354,0.374,110.175,0.374,110.175
		s0.558,27.217-27.218,27.776c-27.776,0.559-194.811,0.124-194.811,0.124s-27.962-0.498-28.148-27.528
		c-0.187-27.03,0-138.883,0-138.883s3.913-27.357,28.148-27.939c24.235-0.583,67.857,0,67.857,0l29.269,27.381
		C375.265,304.977,447.508,304.507,471.877,306.097z"/></svg>