<?xml version="1.0" encoding="utf-8"?>
<!-- Generator: Adobe Illustrator 16.0.0, SVG Export Plug-In . SVG Version: 6.00 Build 0)  -->
<!DOCTYPE svg PUBLIC "-//W3C//DTD SVG 1.1//EN" "http://www.w3.org/Graphics/SVG/1.1/DTD/svg11.dtd">
<svg version="1.1" id="Layer_1" xmlns="http://www.w3.org/2000/svg" xmlns:xlink="http://www.w3.org/1999/xlink" x="0px" y="0px"
	 width="500px" height="500px" viewBox="0 0 500 500" enable-background="new 0 0 500 500" xml:space="preserve">
<rect fill="#0DC3F4" width="500" height="499.997"/>
<g>
	<path fill="#003745" d="M180.172,141.959c-5.109,0-10.217,0.851-13.623,2.129v88.549c2.554,0.852,5.535,0.852,8.94,0.852
		c28.095,0,40.869-20.01,40.869-46.831C216.358,161.542,206.141,141.959,180.172,141.959z"/>
	<path fill="#003745" d="M32.859,32.859v434.28h434.283V32.859H32.859z M247.435,250.943
		c-17.881,18.731-46.829,27.247-69.818,27.247c-3.832,0-7.662,0-11.068,0v106.854H110.78V102.367
		c15.75-3.406,37.037-5.535,58.323-5.535c33.205,0,59.174,4.683,77.907,22.137c17.029,14.901,24.69,38.742,24.69,63.007
		C271.7,213.054,262.335,234.766,247.435,250.943z M329.585,387.598c-17.456,0-37.89-4.683-47.68-11.919l10.217-40.869
		c8.089,5.107,23.413,11.067,37.463,11.067c14.473,0,22.563-6.385,22.563-18.73c0-10.643-5.962-17.454-24.268-28.098
		c-34.057-19.158-42.146-40.869-42.146-60.027c0-37.462,26.821-65.56,68.542-65.56c17.454,0,31.077,4.258,42.146,9.367
		l-9.793,40.869c-8.088-4.683-17.881-8.514-28.95-8.514c-14.048,0-20.859,8.514-20.859,17.879s4.683,14.475,24.268,25.969
		c30.649,17.454,42.146,39.165,42.146,63.008C403.235,364.609,372.583,387.598,329.585,387.598z"/>
</g>
</svg>
